<svg width="258" height="100" viewBox="0 0 258 100" fill="none" xmlns="http://www.w3.org/2000/svg">
  <path d="M254.34 34.34c-2.03-2.3-4.73-3.56-7.6-3.56-.21 0-.42.01-.63.02L69.36 42.34h-.06c-8.65.85-13.59 6.1-14.3 15.16l-.08 1.05c-.17-.02-.34-.03-.5-.03-.25 0-.5.02-.74.07-.21.02-.45.08-.71.17v-3.7c1.84-1.19 2.54-4.24 3.64-9.62.14-.7.29-1.41.44-2.12 1.35-3 3.34-5.79 5.28-8.49 3.34-4.66 6.79-9.48 6.43-15.15l-.23-.83c-3.77-7.38-8.81-12.09-15.4-14.41-1.98-.71-3.76-1.09-5.19-1.39-.59-.12-1.1-.23-1.53-.34l-.15-.03C42.59 2 38.62 1.37 34.53 1.37c-1.74 0-3.35.11-4.95.34-2.01.29-4.06 1.22-6.23 2.21-2.33 1.06-4.74 2.15-6.85 2.3l-.52.1C11.31 7.86 9.79 10 8.56 11.73c-.09.12-.17.24-.26.37l-.21.36c-1.53 3.33-1.91 6.74-1.14 10.16l.05.16c.57 1.82 1.25 3.59 1.9 5.29 1.3 3.39 2.52 6.6 3.02 10.19l.26.76c.5.88.88 2.22 1.3 3.64.85 2.94 1.91 6.59 4.75 9.49l.01.29v4.03S7.7 61.56 4.64 63.83c-1.55 1.15-3.58 3.96.14 6.31 2.86 1.81 11.96 6.57 11.93 6.84-.32 3.24.79 6.16 1.84 7.39 1.72 2.03 4.54 3.19 7.75 3.19 3.07 0 6.09-1.07 8.09-2.85.5-.45.93-.93 1.28-1.42.36.5.78.98 1.28 1.42 1.99 1.78 5.02 2.85 8.09 2.85 3.21 0 6.03-1.16 7.75-3.19 1.13-1.33 2.35-3.71 1.72-7.43l-.11-.61c.06 0 1.63-.78 1.63-.78l.01.13c.18 2.03.49 5.59 5.84 6.05l.06.01H62l184.18 4.96h.28c2.93 0 5.68-1.24 7.75-3.48 2.02-2.19 3.13-5.05 3.13-8.07v-32.8c.01-2.97-1.06-5.81-3-8.01" fill="#fff"/>
  <path fill-rule="evenodd" clip-rule="evenodd" d="m69.5 44.46 176.74-11.54c4.93-.32 8.98 4.24 8.98 9.43v32.79c0 5.18-4.04 9.56-8.98 9.43L62.07 79.61c-3.79-.33-3.76-2.55-3.96-4.71 13.03-2.36 5.67-18.05-.98-17.23.73-9.44 6.18-12.6 12.37-13.21" fill="url(#a)"/>
  <path d="M57.4 61.65c2.2.72 4.01 1.74 5.42 3.06.31.22.46.47.46.76 0 .47-.35.92-1.06 1.36-.83.52-2.07 1.44-3.71 2.76-1.52 1.21-2.75 2.09-3.68 2.65-.18.09-.36.14-.54.14a1 1 0 0 1-.7-.28q-.3-.285-.3-.66c0-.22.08-.41.24-.6.22-.36.72-.76 1.52-1.19.52-.27 1.17-.71 1.95-1.33.94-.76 1.59-1.26 1.95-1.49.79-.4 1.19-.68 1.19-.84 0-.04-.01-.07-.03-.11-.43-.76-1.15-1.33-2.14-1.71-.88-.25-1.78-.51-2.68-.79-1.06-.32-1.85-.78-2.36-1.38-.04-.05-.05-.12-.05-.19 0-.22.13-.46.38-.72s.5-.39.73-.39c.14-.04.29-.05.43-.05.42 0 .93.13 1.54.38.47.2.95.4 1.44.62m-42.25-.89q.615 0 1.02.33c.26.22.39.47.39.76q0 .33-.24.57c-.6.65-1.82 1.35-3.68 2.09-1.72.69-2.87 1.48-3.47 2.38 1.01.61 2.34 1.28 3.98 2 2.62 1.17 3.97 1.78 4.06 1.82.34.16.51.42.51.79.04.45-.14.83-.53 1.15s-.84.47-1.34.47c-.2 0-.39-.04-.57-.11-.22-.22-.51-.47-.89-.76a92 92 0 0 0-7.64-3.71q-.405-.165-.81-.3c-.34-.16-.54-.4-.6-.7 0-.78.34-1.5 1.03-2.17.83-.67 2.2-1.43 4.12-2.3 1.86-.83 3.2-1.6 4.04-2.3 0-.01.2-.01.62-.01m16.99-.04c-.45-.65-.87-1.11-1.25-1.38s-.82-.4-1.33-.4c-.18 0-.34.03-.47.08l-3 1.04c-.17.06-.37.08-.59.08-.4 0-.72-.09-.96-.28-.25-.18-.55-.55-.9-1.1l-.83.55c.52.75.97 1.25 1.33 1.49.37.25.83.37 1.4.37.25 0 .5-.04.74-.11l2.75-1c.18-.07.38-.11.59-.11.35 0 .64.07.85.22.21.14.51.47.89.99z" fill="#5B4538"/>
  <path fill-rule="evenodd" clip-rule="evenodd" d="M52.41 77.29c1.51 9.02-9.52 9.89-14.05 5.84-3.13-2.8-2.25-6.69 2.24-6.45 3.95.21 6.28 5.31 11.81.61m-33.5 0c-1.51 9.02 9.52 9.89 14.05 5.84 3.13-2.8 2.25-6.69-2.24-6.45-3.95.21-6.28 5.31-11.81.61" fill="#5B4538"/>
  <path d="M29.74 64.2c-.5-.35-1.12-.53-1.86-.53-.89 0-1.61.27-2.17.8-.65.59-.9 1.43-.75 2.53.09.89.41 1.67.95 2.35.55.68 1.21 1.02 1.97 1.02.47 0 .96-.13 1.46-.4.89-.53 1.33-1.55 1.33-3.06 0-1.36-.31-2.26-.93-2.71m-1.9 3.59a.95.95 0 1 1 0-1.9.95.95 0 0 1 0 1.9m8.5 8.12c.28 0 .55-.05.8-.15s.48-.22.69-.38.4-.34.57-.53c.17-.2.32-.39.44-.6.13-.2.23-.39.31-.58.08-.18.14-.33.17-.46-.01-.02-.02-.05-.04-.09a.4.4 0 0 1-.05-.09c-.02-.02-.04-.03-.05-.03-.24.44-.5.8-.8 1.08s-.63.48-.98.61c-.36.13-.75.19-1.16.19-.36 0-.68-.05-.96-.14-.29-.09-.54-.23-.77-.4-.23-.18-.43-.39-.62-.63-.18-.24-.35-.52-.5-.82-.01 0-.02.01-.04.03s-.04.05-.05.08c-.02.03-.02.05-.03.07.14.39.31.75.52 1.1q.3.51.69.9c.26.26.54.47.86.62.3.13.64.21 1 .22m8.79-11.77c-.5-.35-1.12-.53-1.86-.53-.89 0-1.61.27-2.17.8-.65.59-.9 1.44-.75 2.53.09.89.41 1.67.95 2.35.55.68 1.21 1.02 1.97 1.02.47 0 .96-.13 1.46-.4.89-.53 1.33-1.55 1.33-3.06.01-1.37-.3-2.27-.93-2.71m-2.18 3.76a.95.95 0 1 1 0-1.9.95.95 0 0 1 0 1.9" fill="#5B4538"/>
  <path d="M51.65 53.38c1.54-.67 2.33-5.87 3.37-10.71 3.75-8.57 12.12-14.88 11.62-22.85-6.87-13.45-16.49-13.93-20.61-15-5.34-.99-10.67-1.72-16-.95-3.79.56-8.7 4.21-13.24 4.52-4.33 1.43-5.41 3.33-6.62 5-1.35 2.94-1.66 5.87-1 8.81 1.66 5.28 4.21 10.08 5 15.83 1.75 3.09 1.87 8.93 5.87 12.85 12.24-5.83 22.24-1.31 31.61 2.5" fill="url(#b)"/>
  <path d="m51.5 53.44-1.15-.47c-9.19-3.75-18.7-7.64-30.42-2.05l-.07.03-.05-.05c-2.61-2.56-3.57-5.87-4.41-8.8-.45-1.54-.87-2.99-1.48-4.08l-.01-.04c-.53-3.82-1.85-7.29-3.13-10.64-.64-1.68-1.31-3.42-1.86-5.18-.67-2.98-.33-5.97 1-8.88.1-.14.19-.27.28-.4 1.11-1.56 2.36-3.33 6.4-4.66 2.5-.18 5.08-1.35 7.57-2.48 2.04-.93 3.97-1.8 5.69-2.05 5.07-.73 10.07-.15 16.02.95.48.12 1.01.24 1.62.37 4.53.96 12.96 2.73 19.06 14.69l.01.04c.31 4.96-2.78 9.28-6.06 13.85-2.03 2.84-4.14 5.78-5.57 9.05-.16.76-.32 1.55-.48 2.33-.86 4.21-1.6 7.85-2.95 8.44zm-19.64-5.53c6.66 0 12.68 2.46 18.58 4.87l1.06.43c1.22-.6 1.98-4.33 2.79-8.27.16-.78.32-1.57.49-2.35 1.45-3.31 3.56-6.26 5.6-9.11 3.25-4.54 6.32-8.82 6.02-13.7C60.33 7.94 52.29 6.25 47.48 5.23c-.62-.13-1.15-.24-1.63-.37-5.92-1.09-10.91-1.67-15.95-.94-1.69.25-3.6 1.12-5.63 2.03-2.51 1.14-5.1 2.31-7.62 2.49-3.95 1.31-5.18 3.04-6.27 4.58-.09.13-.18.25-.27.38-1.31 2.85-1.64 5.8-.98 8.72.55 1.75 1.21 3.48 1.86 5.16 1.28 3.35 2.61 6.82 3.14 10.66.62 1.1 1.04 2.56 1.49 4.1.83 2.88 1.78 6.14 4.31 8.66 4.23-2.01 8.18-2.79 11.93-2.79" fill="#C8BCA8"/>
  <path fill-rule="evenodd" clip-rule="evenodd" d="M20.39 54.28c4.41-2.34 15.45-8.13 30.23 2.02.42-2.38.46-4.76.13-7.14-.42-5.63-22.48-12.52-30.48-.12z" fill="url(#c)"/>
  <path d="m50.66 56.38-.06-.04c-6.33-4.35-12.71-6.26-18.98-5.69-5.18.47-9.1 2.55-11.21 3.67l-.06.03v-.07l-.12-5.25.01-.01c2.16-3.34 5.43-5.52 9.74-6.46 3.53-.78 7.65-.65 11.6.36 5.26 1.34 9.05 3.91 9.22 6.24.33 2.37.29 4.78-.13 7.15zm-16.87-5.92c5.56 0 11.2 1.93 16.8 5.77.4-2.34.44-4.72.11-7.06-.17-2.26-4.02-4.86-9.16-6.17-3.93-1-8.04-1.13-11.56-.36-4.28.94-7.54 3.1-9.68 6.41l.12 5.15c2.13-1.13 6.03-3.18 11.18-3.65q1.11-.09 2.19-.09" fill="#C8BCA8"/>
  <path fill-rule="evenodd" clip-rule="evenodd" d="M14.18 12.5c-.68 3.43 2.36 14.26 1.34 19.94-.52-2.98-2.42-8.89-2.34-12.22-.92-2-1.84-4.42-2.85-5.35-.91-.83 2.09-5.78 3.85-2.37" fill="url(#d)"/>
  <path d="M21.11 47.36c-.01-.01-.01-.01-.01-.02-4-4.68-5.65-12.74-7.04-19.53-1.1-5.39-2.04-9.99-3.86-11.44l-.01-.01c-.23-.3-.36-.65-.41-1.02-.09-.64.07-1.34.4-1.99.32-.65.81-1.23 1.39-1.63.4-.28.85-.46 1.31-.52l.01.09c-.45.05-.88.24-1.27.5-.43.59-.75.97-1.07 1.6-.89 1.78.96 1.69 1.69 2.66 1.84 1.48 1.99 6.33 3.1 11.74 1.39 6.78 1.84 14.83 5.82 19.49.01.01.01.01.01.02z" fill="#A99675"/>
  <path fill-rule="evenodd" clip-rule="evenodd" d="M20.96 11.1c-.68 3.43 1.06 11.3.05 16.99-.52-2.98-2.42-8.89-2.34-12.22-.92-2-2.02-4.28-2.67-5.46-.59-1.06 2.45-2.49 4.96.69" fill="url(#e)"/>
  <path d="M19.63 9.9c-.87-.59-1.22-.56-1.97-.46-.31.04-.57.14-.77.28s-.33.34-.37.58c-.04.36-.28.42.05 1.08 2.22 3.01 3.91 8 4.38 13.31.59 6.73-.19 14.19 4.27 19.47l-.07.06c-4.48-5.31-5.14-12.78-5.73-19.52-.47-5.3-.9-10.15-3.1-13.14-.46-.62-.6-1.13-.53-1.53.05-.27.19-.48.41-.64.21-.16.49-.26.82-.3.77-.1 1.78.13 2.67.74z" fill="#A99675"/>
  <path d="M31.87 5.08c2.06 3.44-1.73 18.92-2.4 28.65-.06.82-7.32-32.11 2.4-28.65" fill="url(#f)"/>
  <path d="M31 42.32c-2.35-6.12-4.87-16.74-5.26-25.12-.15-3.3.02-6.26.67-8.46.65-2.21 1.78-3.65 3.53-3.91.57-.09 1.21-.04 1.92.14l-.03.09c-.7-.18-1.35-.03-1.91.06-1.46.33-1.29 1.25-2.25 3.32-.64 2.19-1 4.9-.71 8.2 1.25 8.17 2.78 19.31 4.11 25.65z" fill="#B5A584"/>
  <path d="M37.84 41.79c-.09-.66-.18-1.34-.28-2.03-1.53-11.02-3.4-24.5 3.16-34.19l.08.05c-2.69 7.17-3.05 20.82-3.37 25.23-.14 1.9.08 5.98.23 8.89.09.68.19 1.36.28 2.03z" fill="#CABB9C"/>
  <path d="M44.96 43.21c.23-5.71.84-12.39 1.39-18.18 1.38-7.3 5.09-10.75 6.06-18.13l.02-.09c-3.54 5.77-5.51 12.01-6.54 18.24-1.02 6.23-1.1 12.45-.83 18.16z" fill="url(#g)"/>
  <path d="M62.12 15.57c-2.95 9.16-6.49 18.11-10.06 27.17.1-11.99 6.53-26.43 10.06-27.17" fill="url(#h)"/>
  <path d="M50.37 46.78c1.56-1.63 1.67-4.13 1.81-7.03.12-2.68.26-5.7 1.57-8.69.03-.11.09-.3.16-.56.87-3.03 4.35-15.21 8.41-14.99l-.01.09c-3.19-.12-7.24 11.93-8.2 14.94-.07.25-.09.41-.13.53v.01c-1.14 2.97-1.21 6-1.59 8.67-.13 2.91-.38 5.43-1.96 7.08z" fill="#A99675"/>
  <path d="M90.21 70.23c0 .19-.12.44-.38.76-2.22 2.63-5.17 3.95-8.86 3.95-3.77 0-6.82-1.28-9.16-3.84-2.28-2.48-3.43-5.61-3.43-9.38 0-3.66 1.12-6.76 3.35-9.3 2.33-2.66 5.3-4 8.9-4 3.91 0 6.98 1.19 9.2 3.59.24.26.36.5.36.7 0 .23-.41 1.08-1.26 2.54-.84 1.47-1.37 2.29-1.58 2.47-.1.09-.22.14-.36.14-.06 0-.36-.24-.91-.72q-.975-.87-1.92-1.35c-.95-.48-1.95-.72-2.97-.72-1.77 0-3.19.66-4.25 1.98-.98 1.22-1.47 2.74-1.47 4.55 0 1.82.49 3.35 1.47 4.6 1.06 1.34 2.48 2.02 4.25 2.02 1.05 0 2.05-.23 2.99-.69q.915-.45 1.89-1.26c.53-.46.82-.68.88-.68.12 0 .24.07.36.2.19.22.72.97 1.58 2.25q1.32 1.995 1.32 2.19m25.95-8.54c0 3.75-1.2 6.89-3.6 9.43-2.45 2.57-5.56 3.86-9.31 3.86-3.73 0-6.83-1.3-9.29-3.89-2.42-2.54-3.62-5.67-3.62-9.4 0-3.74 1.21-6.88 3.62-9.43 2.47-2.61 5.56-3.91 9.29-3.91 3.71 0 6.8 1.3 9.27 3.91 2.43 2.57 3.64 5.72 3.64 9.43m-6.86-.04c0-1.8-.55-3.34-1.65-4.6-1.15-1.32-2.62-1.98-4.4-1.98-1.7 0-3.15.68-4.33 2.06-1.15 1.32-1.73 2.84-1.73 4.56 0 1.84.54 3.37 1.61 4.6 1.14 1.29 2.62 1.93 4.44 1.93q2.55 0 4.35-2.04 1.71-1.95 1.71-4.53m32.04-.12c0 3.53-1.14 6.6-3.43 9.19q-3.03 3.48-8.49 3.66c-.7.02-2.63.04-5.78.04q-.885 0-2.67-.06t-2.67-.06c-.35 0-.53-.14-.53-.41 0-1.32.06-3.31.15-5.96.11-2.65.15-4.63.15-5.96q0-2.07-.15-6.21c-.1-2.76-.15-4.82-.15-6.2 0-.25.18-.4.53-.45.86-.09 2.26-.14 4.22-.14 3.72 0 6.13.06 7.23.16 2.86.29 5.1 1.01 6.72 2.17 1.52 1.08 2.72 2.6 3.6 4.54.85 1.85 1.27 3.74 1.27 5.69m-6.93 0q0-3.045-1.83-4.98c-1.23-1.34-2.86-2-4.89-2-1.86 0-2.79.25-2.79.74 0 .71-.01 1.78-.04 3.2-.02 1.43-.04 2.49-.04 3.2 0 .7.01 1.75.04 3.14.02 1.4.04 2.46.04 3.17 0 .52.96.78 2.89.78 2.09 0 3.73-.7 4.93-2.07 1.12-1.32 1.69-3.05 1.69-5.18m27.13 7.17c0 .52-.1 1.46-.31 2.85-.22 1.5-.41 2.39-.58 2.68a.67.67 0 0 1-.6.34q-.165 0-.54-.06c-.88-.12-3.45-.18-7.72-.18-.93 0-2.31-.01-4.15-.02-1.83-.01-3.21-.02-4.12-.02-.4 0-.6-.17-.6-.52 0-1.35.07-3.37.22-6.07s.23-4.72.23-6.07c0-1.37-.07-3.92-.22-7.66-.04-.96-.1-2.39-.2-4.31l-.02-.25c-.02-.28.12-.41.45-.41.9 0 2.24.02 4.03.07s3.13.07 4.03.07c.88 0 2.21-.02 3.98-.07 1.77-.04 3.1-.07 3.99-.07.62 0 .99.23 1.09.7.06.28.15 1.11.28 2.52.12 1.4.19 2.25.19 2.55 0 .25-.12.38-.36.38-.07 0-.2-.01-.38-.02-3.22-.26-6.1-.4-8.66-.4-.64 0-1.03.15-1.17.46q-.09.21-.09 1.38 0 1.23.36 1.62c.2.23.59.34 1.17.34.12 0 .36-.01.7-.02.35-.02.64-.02.87-.02 1.52 0 3.06-.04 4.62-.13.14-.01.46-.04 1-.09.41-.04.74-.07.98-.07.29 0 .44.14.44.41q0-.375-.33 2.76c-.1.97-.14 1.93-.14 2.89 0 .24-.18.36-.53.36l-1.63-.18c-.69-.07-2.26-.1-4.71-.1h-1.92c-.49 0-.79.12-.87.36-.01.06-.02.44-.02 1.12 0 .92.06 1.5.18 1.77.21.46.98.73 2.32.81h2.65c.64 0 1.59-.06 2.86-.17 1.26-.11 2.21-.17 2.83-.17.26-.01.4.21.4.64" fill="#fff"/>
  <path d="M230 69.15c0 .5-.1 1.41-.3 2.74-.21 1.45-.4 2.3-.56 2.58-.14.22-.34.33-.58.33-.1 0-.28-.02-.53-.05-.85-.11-3.34-.17-7.48-.17-.9 0-2.24-.01-4.02-.02-1.77-.01-3.11-.02-4-.02-.39 0-.58-.17-.58-.5 0-1.3.07-3.24.22-5.84.15-2.59.22-4.54.22-5.84 0-1.32-.07-3.77-.21-7.38-.04-.92-.1-2.3-.19-4.15l-.02-.24c-.02-.27.12-.4.44-.4.87 0 2.17.02 3.91.07s3.04.07 3.91.07c.85 0 2.14-.02 3.86-.07 1.72-.04 3.01-.07 3.86-.07.6 0 .96.23 1.05.68.05.27.14 1.07.27 2.42.12 1.34.19 2.16.19 2.45 0 .24-.12.37-.35.37-.07 0-.19-.01-.37-.02-3.12-.25-5.91-.38-8.4-.38-.62 0-1 .15-1.14.44-.06.14-.09.58-.09 1.33 0 .79.12 1.31.35 1.56q.3.33 1.14.33c.12 0 .35-.01.68-.02.34-.02.62-.02.84-.02 1.47 0 2.97-.04 4.48-.12q.195-.015.96-.09c.4-.04.71-.07.95-.07.28 0 .43.13.43.4 0-.24-.11.65-.32 2.65-.1.93-.14 1.85-.14 2.78 0 .23-.17.35-.51.35l-1.58-.18c-.66-.07-2.19-.1-4.57-.1h-1.86c-.48 0-.76.11-.84.34-.01.06-.02.42-.02 1.08 0 .88.06 1.45.17 1.7q.3.66 2.25.78h2.56c.62 0 1.54-.05 2.77-.17 1.22-.11 2.14-.17 2.74-.17.27.01.41.23.41.64m19.34-13.29c0 .12-.12.19-.35.19-.87 0-2.2-.08-3.99-.22-1.79-.15-3.12-.23-4.01-.23-1.12 0-1.77.04-1.97.12-.43.2-.65.75-.65 1.67 0 1.1.28 1.72.84 1.87.24.06.59.09 1.07.09.81 0 2.02-.05 3.62-.13 1.61-.09 2.82-.13 3.63-.13.39 0 .58 1.02.58 3.05 0 1.77-.07 2.8-.19 3.09-.08.21-.24.31-.47.31q.225 0-1.11-.12c-1.25-.12-3.15-.17-5.69-.17-.82 0-1.28.01-1.39.02-.59.09-.89.34-.89.75q0 2.46.21 5.67c.12 1.93.17 2.79.17 2.58 0 .3-.37.47-1.1.52.2-.01-.32-.02-1.56-.02-2.19 0-3.6-.08-4.23-.22q-.51-.12-.51-.54c0-1.29.04-3.21.13-5.79.09-2.57.13-4.5.13-5.79q0-2.295-.21-5.76c-.21-3.57-.32-5.49-.34-5.76l-.02-.21c-.01-.29.17-.44.53-.44.87 0 2.18.02 3.92.05 1.75.04 3.06.05 3.94.05.93 0 2.34-.07 4.22-.21s3.28-.21 4.22-.21c.58 0 .91.24.98.71 0 .5.02 1.24.07 2.24.02.26.1.75.23 1.48.13.65.19 1.14.19 1.49m-86.11.65c-1.02 3.44-.74 6.99.83 10.53 1.62 3.66 4.06 6.22 7.27 7.62 3.28 1.44 6.74 1.34 10.28-.29 3.46-1.6 5.7-4.17 6.66-7.65.06-.23.07-.37.07-.45-.17-.14-.65-.5-2.06-1.41-1.44-.92-2.07-1.29-2.34-1.44-.07.14-.17.35-.31.66-.42.91-.89 1.68-1.39 2.29a7.95 7.95 0 0 1-2.89 2.25c-1.94.9-3.86.86-5.7-.12-1.65-.88-2.93-2.33-3.81-4.31-.87-1.96-1.08-3.88-.62-5.71.51-2.02 1.75-3.5 3.69-4.39 1.11-.51 2.31-.75 3.57-.69.85.05 1.74.23 2.68.53.38.12.62.19.77.23.06-.25.19-.96.37-2.9.2-2.11.17-2.7.14-2.85-.03-.03-.11-.11-.33-.2q-2.025-.87-4.23-.87-2.85 0-5.97 1.44c-3.38 1.56-5.63 4.16-6.68 7.73" fill="#F8F3DE"/>
  <path d="M209.72 68.35q-.18-3.78-.18-5.67c0-1.34.05-3.35.16-6.04s.17-4.69.17-6.02c0-.28-.17-.41-.51-.41-.35 0-.87.02-1.57.05-.7.04-1.21.05-1.55.05-.35 0-.88-.02-1.57-.05-.7-.03-1.22-.05-1.56-.05-.29 0-.44.18-.44.53 0 .85.04 2.11.13 3.8.08 1.68.12 2.94.12 3.77 0 .4-.14.64-.42.71-.4.09-1.85.14-4.36.14-2.69 0-4.19-.04-4.49-.14-.22-.07-.33-.31-.33-.71 0-.87.06-2.17.19-3.9s.19-3.03.19-3.9c0-.21-.1-.31-.3-.31-.37 0-.93.02-1.69.05-.76.04-1.32.05-1.7.05-.37 0-.91-.02-1.64-.05s-1.28-.05-1.64-.05c-.25 0-.37.12-.37.38 0 1.34.06 3.36.18 6.05.11 2.69.17 4.71.17 6.05 0 .28 0 .59-.01.92.09.06.17.11.27.17 2.37 1.54 2.44 1.7 2.54 1.92.15.34.15.77 0 1.36-.6 2.19-1.66 4.05-3.14 5.58-.01.52-.02.99-.02 1.38q0 .45.51.54c.43.07 1.44.11 3.01.11 1.83 0 2.93-.04 3.3-.11.32-.06.47-.26.47-.61 0-.9-.03-2.25-.08-4.05-.06-1.79-.09-3.15-.09-4.05 0-.46.13-.72.38-.78.41-.09 1.84-.14 4.28-.14s3.85.05 4.25.14q.39.105.39.78c0 .92-.05 2.29-.13 4.12-.09 1.84-.13 3.21-.13 4.12 0 .24.16.4.48.47s1.4.11 3.24.11c1.3 0 2.31-.04 3.02-.11.28-.02.44-.05.49-.09.1-.05.16-.21.16-.45.01-1.25-.05-3.14-.18-5.66" fill="#F8F3DE"/>
  <defs>
    <linearGradient id="a" x1="57.122" y1="58.738" x2="255.226" y2="58.738" gradientUnits="userSpaceOnUse">
      <stop stop-color="#3B2519"/>
      <stop offset=".03" stop-color="#3F2719"/>
      <stop offset=".274" stop-color="#5C331B"/>
      <stop offset=".485" stop-color="#6E3B1D"/>
      <stop offset=".638" stop-color="#743E1D"/>
      <stop offset=".742" stop-color="#6F3C1C"/>
      <stop offset=".862" stop-color="#61351A"/>
      <stop offset=".991" stop-color="#4A2B17"/>
      <stop offset="1" stop-color="#482A17"/>
    </linearGradient>
    <linearGradient id="b" x1="8.836" y1="28.463" x2="66.659" y2="28.463" gradientUnits="userSpaceOnUse">
      <stop offset=".04" stop-color="#F9F9EC"/>
      <stop offset=".418" stop-color="#F9F9EC"/>
      <stop offset=".493" stop-color="#F3F1E2"/>
      <stop offset=".622" stop-color="#E4DDC6"/>
      <stop offset=".787" stop-color="#CCBC9A"/>
      <stop offset=".797" stop-color="#CABA97"/>
      <stop offset="1" stop-color="#BAA685"/>
    </linearGradient>
    <linearGradient id="c" x1="20.269" y1="49.202" x2="50.974" y2="49.202" gradientUnits="userSpaceOnUse">
      <stop stop-color="#F9F9EC"/>
      <stop offset=".053" stop-color="#F9F9EC"/>
      <stop offset=".384" stop-color="#F9F9EC"/>
      <stop offset=".514" stop-color="#F5F4E5"/>
      <stop offset=".709" stop-color="#EAE5D0"/>
      <stop offset=".944" stop-color="#D9CCAF"/>
      <stop offset=".999" stop-color="#D4C6A6"/>
    </linearGradient>
    <linearGradient id="d" x1="10.162" y1="21.884" x2="15.732" y2="21.884" gradientUnits="userSpaceOnUse">
      <stop stop-color="#E8DBCA"/>
      <stop offset="1" stop-color="#F2ECDE"/>
    </linearGradient>
    <linearGradient id="e" x1="18.402" y1="15.833" x2="21.46" y2="20.296" gradientUnits="userSpaceOnUse">
      <stop stop-color="#ECE1D1"/>
      <stop offset=".432" stop-color="#EEE6D9"/>
      <stop offset="1" stop-color="#EFE9DE"/>
    </linearGradient>
    <linearGradient id="f" x1="26.808" y1="19.287" x2="32.472" y2="19.287" gradientUnits="userSpaceOnUse">
      <stop stop-color="#ECE1D1"/>
      <stop offset="1" stop-color="#EDE4D5"/>
    </linearGradient>
    <linearGradient id="g" x1="48.724" y1="18.907" x2="48.578" y2="26.396" gradientUnits="userSpaceOnUse">
      <stop stop-color="#BAA68A"/>
      <stop offset="1" stop-color="#C7BAA0"/>
    </linearGradient>
    <linearGradient id="h" x1="52.062" y1="29.155" x2="62.119" y2="29.155" gradientUnits="userSpaceOnUse">
      <stop stop-color="#BDAE99"/>
      <stop offset=".255" stop-color="#BFB19C"/>
      <stop offset="1" stop-color="#C2B5A1"/>
    </linearGradient>
  </defs>
</svg>
