<svg xmlns="http://www.w3.org/2000/svg" width="944.078" height="698.086"  xmlns:v="https://vecta.io/nano"><circle cx="397" cy="273.146" r="130" fill="#4a90e2"/><path d="M414 381.146c-72.234 0-131-58.767-131-131s58.766-131 131-131 131 58.766 131 131-58.767 131-131 131zm0-260c-52.176 0-99.214 31.43-119.181 79.634s-8.93 103.689 27.964 140.583 92.379 47.931 140.583 27.964S543 302.322 543 250.146c-.08-71.211-57.789-128.92-129-129zM811 441H0V0h811zM2 439h807V2H2z" fill="#3f3d56"/><path d="M27 35h178v18H27zm267 0h178v18H294zm267 0h178v18H561z" fill="#f2f2f2"/><path d="M217 45H37V25h180zM39 43h176V27H39zm445 2H304V25h180zm-178-2h176V27H306zm445 2H571V25h180zm-178-2h176V27H573z" fill="#3f3d56"/><path fill="#2f2e41" d="M116.474 682.738h827.604v2.554H116.474z"/><path fill="#3f3d56" d="M393.5 483.5l63-122 17 10-72 117-8-5z"/><path d="M357 510s11.612 9.123 12.93-10.397a22.39 22.39 0 0 1 8.146-16.09c5.258-4.201 12.824-7.074 21.924-1.513 8.1 4.95 9.923 12.128 9.477 18.525a28.47 28.47 0 0 1-14.233 22.254c-9.027 5.358-23.277 9.391-38.244-3.779 0 0-9-10 0-9z" fill="#4a90e2"/><g fill="#ffb8b8"><circle cx="468.397" cy="196.775" r="24.266"/><path d="M455.625 208.27s6.386 33.206 3.832 39.592 35.761-2.554 35.761-2.554-7.663-33.206-6.386-40.869-33.206 3.832-33.206 3.832zm-42.146 114.945l2.554 34.483 12.677 54.156 3.926 14.812 6.386-22.989-6.386-52.364-2.169-23.575-16.988-4.523zm134.102-5.109v35.761s-3.832 45.978-11.495 57.473-10.217-45.978-10.217-45.978l6.005-42.147z"/></g><g fill="#2f2e41"><path d="M433.913 429.22s-6.386 7.663-1.277 85.57-2.554 134.103 14.049 134.103c0 0-5.109 16.603 8.94 17.88s20.435 2.554 21.712-1.277 3.832-21.712 0-21.712c0 0 0 5.109 2.554-15.326s2.554-117.499 8.94-130.271l20.435 47.255s0 21.712 3.832 31.929 10.217 68.967 10.217 68.967l-1.277 8.94s30.652 5.109 31.929 0 1.277-12.772 0-15.326-1.277-2.554 1.277-7.663 2.554-8.94 1.277-12.772-1.277-86.847-1.277-86.847-2.554-100.896-17.88-106.005-103.451 2.554-103.451 2.554z"/><path d="M450.517 656.556l-10.217 17.88s-15.965-5.747-12.772 8.94c27.459 1.916 46.617-.639 46.617-.639s6.386 2.554 7.663-1.277-3.193-17.242-7.024-17.242-24.266-7.663-24.266-7.663zm74.075-5.109s-10.217 22.989-6.386 24.266 38.315 6.386 40.869 7.663 15.326 2.554 16.603-5.109-6.386-10.217-6.386-10.217-14.049-2.554-17.88-15.326-26.821-1.277-26.821-1.277z"/></g><g fill="#8985a8"><path d="M497.772 241.476s-34.484-6.386-42.147 0-39.592 19.158-39.592 25.543 16.603 68.967 16.603 68.967-8.94 94.51 0 97.065 24.266-5.109 42.147 3.832 68.967-7.663 68.967-7.663-19.158-81.739-14.049-97.065 8.94-67.69 8.94-67.69-21.712-22.989-40.869-22.989z"/><path d="M424.973 263.188l-8.94 2.554s-19.158 60.027-11.495 62.581 29.375 7.663 31.929 7.663-11.495-72.799-11.495-72.799zm93.233-6.386l20.435 7.663s26.821 49.81 20.435 56.195-34.484 12.772-34.484 12.772z"/></g><path d="M467.66 166.803c-2.018-.366-4.092-.274-6.07.268-1.583.701-3.04 1.657-4.314 2.83a50.49 50.49 0 0 1-7.376 4.887c-2.07 1.123-4.294 2.163-5.739 4.023a12.21 12.21 0 0 0-1.62 3.066 36.74 36.74 0 0 0-1.932 19.996 9.19 9.19 0 0 0 .851 2.746c1.327 2.446 4.259 3.409 6.729 4.692 4.689 2.434 8.243 6.533 12.089 10.155 1.428 1.426 3.034 2.663 4.777 3.681 5.487 2.991 12.193 2.016 18.352.958.882-.002 1.726-.355 2.346-.982s.964-1.475.955-2.357l4.862-21.866c.881-3.24 1.301-6.588 1.246-9.944-.339-5.308-3.213-12.661-7.108-16.431-4.539-4.393-12.114-5.092-18.047-5.72z" fill="#2f2e41"/><g fill="#4a90e2"><ellipse cx="368" cy="681" rx="35" ry="2"/><ellipse cx="360" cy="685" rx="35" ry="2"/><ellipse cx="325" cy="673" rx="19" ry="1.086"/><ellipse cx="393" cy="697" rx="19" ry="1.086"/></g></svg>