<svg xmlns="http://www.w3.org/2000/svg" xmlns:xlink="http://www.w3.org/1999/xlink" width="888" height="637.962" xmlns:v="https://vecta.io/nano"><g fill="#2f2e41"><circle cx="174.023" cy="76.131" r="30.997"/><path d="M79.615 449.308l19.044-66.045 6.483 2.026s-7.699 49.433-19.854 61.993z"/></g><use xlink:href="#B" fill="#ffb9b9"/><use xlink:href="#B" opacity=".1"/><path d="M166.73 579.778v16.612l22.285 4.457-2.026-27.552-20.259 6.483zm66.856-6.483l-4.863 23.095 9.725 6.888 17.018-12.56-2.026-19.855-19.854 2.432z" fill="#ffb9b9"/><path d="M191.041 598.821s-8.509-14.383-24.311-5.368c0 0-2.836 15.903-5.673 17.118s-18.639 24.311 0 26.337 27.958-4.052 27.958-4.052-3.647 3.138 2.026 1.517 3.241-10.535 3.241-10.535zm55.51-9.724s-12.561 8.914-14.587 4.862-5.267-3.647-5.267-3.647-11.345 42.768-4.052 44.794a24.58 24.58 0 0 0 14.181-.733s9.724-6.81 9.724-1.543 27.147 4.888 38.493 4.483 5.267-8.914 5.267-8.914l-14.992-14.587-17.018-24.716s-7.699-6.888-11.75 0zm-119.529-271.07l17.018 163.29 10.94 101.297c1.621 1.621 12.156 6.888 35.251 0l-5.267-130.47 9.724-81.037 22.285 55.916s5.267 150.324 8.914 150.324 25.932 7.293 31.199-1.621 4.457-104.943 4.457-104.943-2.431-151.54-20.259-156.402-114.262 3.647-114.262 3.647z" fill="#2f2e41"/><circle cx="174.023" cy="81.804" r="27.958" fill="#ffb9b9"/><path d="M175.644 159.599s-2.836-17.423-2.836-20.664-12.561-5.267-12.561-5.267-9.724-10.94-11.75-9.319-32.82 22.285-37.682 25.122-10.13 14.992-9.724 15.802 25.527 53.485 25.527 53.485 10.94 32.415 3.241 49.433-17.423 50.648-3.241 57.536 83.063 21.88 95.624 8.914 21.475-16.613 24.716-16.613-13.371-56.321-9.724-61.588-1.621-38.087-1.621-38.087l18.639-52.269s-1.621-29.173-38.493-35.656l-22.058-10.695z" fill="#575a89"/><path d="M99.874 325.321s-2.026 19.449-2.026 25.122-9.724 38.898 4.457 42.95 12.966-44.165 12.966-44.165V324.51zm168.152-18.234s2.431 18.639 1.216 22.69 11.75 39.303-5.673 41.329-12.966-42.139-12.966-42.139v-21.88z" fill="#ffb9b9"/><path d="M96.227 442.825l11.75-62.399h3.647c5.183 6.682 6.561 15.562 3.647 23.501-4.862 13.776-8.914 38.898-8.914 38.898z" fill="#2f2e41"/><path d="M107.167 160.41l-6.078 4.862s-8.104 128.849-6.078 138.574-7.293 23.501.81 24.716 17.828 6.483 22.285 3.241 5.267-14.992 6.888-17.828 4.457-36.467 4.457-36.467 8.509-33.63 3.241-58.752l-10.13-50.648zm128.444-10.13l18.639 15.802 14.182 82.658s8.914 64.425 2.026 65.235-17.423-1.216-21.88 0-8.104-2.026-8.104-2.026l-4.862-26.337c0-.405-3.241-29.984-3.241-29.984l-4.052-33.225 6.078-36.467z" fill="#575a89"/><path d="M147.686 532.776l-6.264 17.865-5.543 15.665-3.801 10.652-5.669 15.628c-2.253 6.106-4.08 10.891-5.061 13.124-4.457 10.13-85.899-6.078-92.382-10.13s-8.104-17.828-8.914-37.277l-.008-.304c-.105-3.926.895-9.773 2.569-16.633.835-3.428 1.84-7.107 2.958-10.928 1.499-5.126 3.201-10.498 4.98-15.847 7.642-22.974 16.649-45.429 16.649-45.429s15.802-10.94 21.475-18.233 36.872-12.966 36.872-12.966c8.914.405 29.173 34.846 37.277 45.381s4.862 49.433 4.862 49.433z" fill="#3f3d56"/><g fill="#2f2e41"><circle cx="102.305" cy="467.541" r="3.647"/><circle cx="107.978" cy="471.593" r="2.026"/></g><path d="M141.422 550.641l-5.543 15.665-110.308-35.867c1.499-5.126 3.201-10.498 4.98-15.847zm-9.344 26.316l-5.669 15.628-106.365-34.587c-.105-3.926.895-9.773 2.569-16.633z" fill="#f2f2f2"/><g fill="none" stroke="#2f2e41" stroke-miterlimit="10" stroke-width="3"><path d="M102.305 468.351s8.104 35.656 3.241 67.261 12.156 61.183 12.156 61.183"/><path d="M107.978 471.188s-15.802 57.536-16.207 65.64-6.888 66.045-14.992 72.123"/></g><g fill="#2f2e41"><path d="M152.559 64.743s-6.328-16.454 2.848-21.833l2.531 7.278s23.099-13.923 29.111-10.758l-5.696 7.594s26.896 0 28.794 10.442l-9.493.316s10.126 6.645 10.442 17.403l-20.251 1.266 9.809 5.696s-36.705 5.063-45.565-9.493z"/><path d="M147.078 65.394s7.293 14.587 17.018 10.94 0-17.018 0-17.018l-6.483-3.241z"/></g><g fill="#f2f2f2"><path d="M776 295.514L643.75 130.25c-6.005 5.492-13.404 9.228-21.388 10.8-24.898 4.903-49.212-12.099-54.308-37.975-3.58-17.441 2.795-35.43 16.558-46.725L539.518 0 282.615 219.563l236.482 295.514z"/><circle cx="611.674" cy="95.915" r="37.284"/></g><path d="M366.977 275.246l11.408-13.202 38.433 33.209-11.408 13.202zm247.061 236.101l11.408-13.202 34.067 29.437-11.408 13.202z" fill="#4a90e2"/><path d="M687 399.81v1.024q-.035 3.856-.221 7.677c-4.604 90.51-79.026 161.708-169.651 162.3s-165.972-69.625-171.76-160.067q-.349-5.426-.349-10.934c-.061-35.415 10.93-69.967 31.441-98.837q2.46-3.49 5.118-6.851c1.221-1.559 2.478-3.083 3.746-4.595 60.042-71.13 165.944-81.179 238.293-22.613 2.059 1.663 4.083 3.385 6.06 5.141q2.373 2.111 4.664 4.315a170.53 170.53 0 0 1 52.065 109.062q.593 7.119.593 14.377z" fill="#3f3d56"/><g fill="#4a90e2"><path d="M516.01 592.32c-106.15 0-192.51-86.36-192.51-192.51a191.88 191.88 0 0 1 51.366-130.915l4.263 3.956a186.08 186.08 0 0 0-49.813 126.959c0 102.943 83.75 186.694 186.694 186.694a185.22 185.22 0 0 0 134.026-56.725l4.176 4.048A190.99 190.99 0 0 1 516.01 592.32z"/><path d="M495.072 588.249h48.854v48.854h-48.854zM381.579 294.122a.95.95 0 0 1 .233.14c.919.756-.233 2.21-.093 3.408.163 1.535 2.21 1.873 3.757 2.024 1.547.163 3.501 1.407 2.768 2.78-3.885 1.338-7.817.023-11.783-1.501-20.511 28.871-31.503 63.422-31.441 98.837q0 5.514.349 10.934a4.42 4.42 0 0 0 1.059.57c1.163.442 2.513.361 3.583.989.849.5 1.419 1.384 2.268 1.849 2.431 1.326 5.804-1.221 8.073.361a20.82 20.82 0 0 1 1.663 1.698c2.094 1.815 5.537.593 7.956 1.954 1.559.872 2.361 2.617 3.199 4.199 2.082 3.955 5.455 7.84 9.91 8.154a26.69 26.69 0 0 1 4.211.14c1.373.314 2.722 1.512 2.501 2.896-.384 2.385.791 4.99.477 7.375-.57 4.362-6.747 6.27-7.27 10.632-.002.96-.056 1.919-.163 2.873-.279 1.14-1.14 2.07-1.442 3.21-.582 2.152.965 4.304 2.652 5.746 1.698 1.454 3.722 2.71 4.653 4.734.977 2.152.5 4.653.814 6.991.698 5.106 5.106 8.887 9.643 11.33a10.07 10.07 0 0 1 3.769 2.745c1.163 1.687 1.047 3.908 1.442 5.921.954 4.92 5.095 8.98 5.211 13.993.081 3.571-1.896 6.805-3.082 10.166a23.46 23.46 0 0 0-1.059 10.981 171.81 171.81 0 0 0 21.089 15.296c.403-.595.698-1.257.872-1.954.288-1.579-.43-3.171-1.803-4.001a9.56 9.56 0 0 0 3.338-2.14c.957-.984 1.199-2.461.605-3.699 2.047.256 4.478.384 5.828-1.186 1.082-1.256 1.012-3.141.582-4.734a19.48 19.48 0 0 1-1.163-4.816c4.743.231 9.497.071 14.214-.477a9.23 9.23 0 0 0-4.327-5.421c2.14-.361 4.083-2.92 4.757-4.978a12.68 12.68 0 0 0 .093-6.432 3.42 3.42 0 0 1-.07-1.675c.344-.738.949-1.322 1.698-1.64q5.304-3.053 10.608-6.095a6.38 6.38 0 0 0 1.698-1.245c1.105-1.314.942-3.28.372-4.897s-1.477-3.141-1.698-4.839c-.651-5.083 4.792-8.736 6.63-13.528a20.32 20.32 0 0 0 1-5.921c.151-2.164.163-4.664-1.489-6.049-1.594-1.338-4.071-1.035-5.735-2.28-1.524-1.14-2.047-3.338-3.711-4.257-1.512-.837-3.397-.302-5.083-.698-2.955-.686-4.816-4.094-7.84-4.409-1.698-.186-3.629.651-5.025-.337-1.233-.884-1.28-2.64-1.512-4.129-.846-4.75-4.558-8.471-9.306-9.329-1.756-.279-3.664-.174-5.165-1.14-1.512-.977-2.198-2.803-3.397-4.164-1.908-2.175-4.932-2.955-7.759-3.618q-5.758-1.343-11.504-2.699c-2.036-.489-4.664-.744-5.769 1.047a7.87 7.87 0 0 0-.675 2.152 6.67 6.67 0 0 1-6.258 4.699c-.962-1.642-2.52-2.851-4.35-3.373a27.45 27.45 0 0 1-3.536-.837c-1.223-.599-2.146-1.676-2.551-2.976s-.256-2.71.41-3.898c1.356-2.426.922-5.46-1.059-7.41-1.954-1.756-4.781-2.187-7.41-2.012-.686-1.501.465-3.187 1.698-4.281 1.245-1.082 2.745-2.152 3.013-3.78.43-2.559-2.838-4.502-5.316-3.746-2.478.768-4.06 3.176-5.106 5.548-.508 1.4-1.2 2.726-2.059 3.943a4.04 4.04 0 0 1-3.908 1.605c-2.047-.523-2.827-2.955-3.28-5.002-.727-2.736-1.094-5.556-1.093-8.387a10.95 10.95 0 0 1 3.164-7.631c3.385-3.117 8.596-2.815 13.167-2.315-1.013-1.351-.864-3.245.349-4.42 1.242-1.103 2.949-1.521 4.56-1.117 1.378.285 2.62 1.027 3.524 2.105 1.303 1.582 1.675 3.734 2.652 5.525.989 1.803 3.199 3.338 5.002 2.373 1.57-.838 1.815-3.001 1.431-4.734-.395-1.722-1.221-3.408-1.082-5.176.268-3.362 3.769-5.397 6.851-6.781s6.607-3.257 7.096-6.607a6.19 6.19 0 0 1 .372-1.908 3.73 3.73 0 0 1 1.384-1.303c8.992-5.944 18.146-11.969 28.429-15.215.535-.174.593.012 1.14-.116.768-.442.256-1.663-.477-2.152s-1.71-.872-1.896-1.733c-.128-.628.244-1.256.337-1.896.049-.785-.294-1.543-.917-2.023s-1.443-.62-2.189-.373c-.826-1.093.803-2.361 2.129-2.734a58.14 58.14 0 0 1 12.155-1.977 2.16 2.16 0 0 1 1.384.233c.628.606.673 1.596.105 2.257a12.74 12.74 0 0 1-1.849 1.687 5.08 5.08 0 0 0-1.326 5.106c2.152 1.093 4.478 2.222 6.863 1.838 2.373-.384 4.478-3.059 3.362-5.188-1.035-1.989-4.164-2.443-4.699-4.618-.628-2.547 2.978-4.816 2.164-7.305-.349-1.093-1.442-1.745-2.28-2.524a6.88 6.88 0 0 1-1.501-7.607 8.67 8.67 0 0 1-7.584-2.373c-1.815-1.826-3.257-4.723-5.839-4.63-2.361.07-4.397 2.827-6.607 1.989-.547-.209-1.117-.628-1.64-.384-.35.225-.577.598-.616 1.012-.558 2.687.407 5.746-1.059 8.073-1.594 2.524-5.281 2.873-7.212 5.153-1.047 1.233-1.454 2.896-2.419 4.199s-3.001 2.14-4.164 1c1.173-2.405.526-5.302-1.559-6.979a14.99 14.99 0 0 0-3.443-1.675c-1.357-.573-2.648-1.29-3.85-2.14-.599-.365-1.086-.888-1.407-1.512a3.48 3.48 0 0 1 .093-2.396c1.2-3.424 4.195-5.903 7.782-6.444 1.535-.209 3.327-.14 4.35-1.314.535-.616.814-1.559 1.605-1.803a2.34 2.34 0 0 1 1.477.174l5.746 2.024c.64.294 1.347.41 2.047.337.72-.093 1.245-.729 1.198-1.454-.186-.954-1.652-1.407-1.512-2.373a1.51 1.51 0 0 1 .477-.814c4.201-4.468 10.177-6.827 16.296-6.433.721 1.198-.419 2.606-1.384 3.618-.954 1.024-1.722 2.838-.558 3.618a3.07 3.07 0 0 0 1.524.349 13.29 13.29 0 0 1 4.071 1.233 77.46 77.46 0 0 1 5.851 2.838 7.37 7.37 0 0 1 .14-3.769 2.56 2.56 0 0 1 3.024-1.64c1.14.442 1.722 1.954 2.943 2.094 1.617.186 2.257-2.21 1.582-3.699s-2.024-2.722-2.129-4.362c-.081-1.093.337-2.454-.535-3.117-.31-.205-.665-.333-1.035-.372q-10.957-2.007-21.926-4.025c-1.303-.244-3.176-.058-3.234 1.256-.035.744.628 1.477.337 2.152-.314.721-1.338.663-2.082.919-1.149.521-1.814 1.741-1.628 2.989a8.15 8.15 0 0 0 1.373 3.362c-1.431-.593-3.583-.698-5.013-1.303a19.28 19.28 0 0 0-1.256-4.827c-.072-.499-.362-.94-.791-1.205s-.953-.326-1.431-.168l-5.653.861c-.473.022-.926.198-1.291.5-.733.779-.012 2.024-.035 3.094a2.9 2.9 0 0 1-2.245 2.501 8.46 8.46 0 0 1-3.583-.047l-7.91-1.221a12.96 12.96 0 0 0 5.979-4.001c1.047-1.233 1.605-3.536.093-4.118a3.61 3.61 0 0 0-1.373-.105c-3.583.023-6.409-2.966-9.759-4.234a9.59 9.59 0 0 0-3.292-.605zm305.2 114.389a4.2 4.2 0 0 1-3.559 1.687c-3.641-.314-5.176-5.56-8.782-6.153-.319-.082-.657-.049-.954.093-.535.291-.628 1.012-.663 1.617-.151 3.001-.279 6.118.896 8.887 1.71 4.048 6.142 7.444 5.211 11.737-5.002-2.315-7.607-7.933-8.782-13.319-1.186-5.386-1.373-11.039-3.49-16.134-1.617 2.059-4.99.361-6.456-1.803-1.396-2.047-2.257-4.42-3.606-6.502-1.349-2.07-3.42-3.932-5.886-4.048-2.594-.116-4.851 1.663-6.828 3.35a15.8 15.8 0 0 0-4.246 4.723c-1.384 2.792-1.024 6.072-1.093 9.178-.07 3.35-.779 6.898-3.071 9.364-2.292 2.454-6.514 3.315-9.038 1.093-1.22-1.272-2.09-2.839-2.524-4.548a221.32 221.32 0 0 1-6.84-24.404c-.419 1.884-2.082 4.315-3.664 3.21a3.28 3.28 0 0 1-.838-1.093c-2.955-4.99-8.41-7.991-13.935-9.794-5.514-1.791-11.318-2.629-16.773-4.606-3.059-1.111-5.982-2.567-8.712-4.339a6.86 6.86 0 0 0-.419 7.002 5.61 5.61 0 0 0 6.305 2.64c1.21-.395 2.233-1.233 3.431-1.652 1.198-.407 2.815-.209 3.338.954.512 1.105-.256 2.443.128 3.606.57 1.756 3.234 1.896 4.164 3.501a3.24 3.24 0 0 1-.872 3.746 15.71 15.71 0 0 1-3.513 2.164c-3.908 2.175-6.688 5.886-10.108 8.771-3.42 2.896-8.247 5.002-12.318 3.152.965-4.92-4.885-8.526-5.967-13.423-.361-1.617-.174-3.327-.675-4.897-.733-2.28-2.757-3.839-4.409-5.56-4.054-4.27-6.214-9.994-5.99-15.878.093-2.024.465-4.083 0-6.06-.454-1.966-2.094-3.873-4.118-3.792-4.618.209-10.446.558-12.865-3.385-.872-1.407-1.245-3.466.012-4.548a4.39 4.39 0 0 1 3.338-.57l10.422 1.024c2.431.233 5.06.43 7.154-.837s3.001-4.653 1.059-6.153c-1.407-1.093-3.943-1.035-4.362-2.768-.337-1.454 1.268-3.094.395-4.315-.616-.861-2.012-.628-2.861.023a18.68 18.68 0 0 1-2.408 2.105c-1.663.861-3.641.035-5.432-.523s-4.188-.605-5.048 1.059c-.977 1.849.849 4.292-.105 6.153-1.28 2.454-5.583 1.059-7.375 3.176-2.047 2.419 1.396 6.049.71 9.143a5.7 5.7 0 0 1-5.618-.314 5.44 5.44 0 0 1-2.35-5.072c.163-1.396.896-2.827.407-4.141a4.83 4.83 0 0 0-2.454-2.245q-5.06-2.809-10.12-5.595c-.942 1.745.244 3.897 1.733 5.211 1.477 1.303 3.338 2.291 4.315 4.013 1.284 2.477.418 5.525-1.977 6.956-.296.203-.665.267-1.012.174a1.4 1.4 0 0 1-.651-.872c-1.78-4.571-4.467-9.073-8.747-11.458-4.292-2.396-10.446-1.896-13.26 2.117-.663.954-1.117 2.047-1.698 3.059-3.082 5.362-9.713 7.898-15.901 7.735-.605.039-1.208-.103-1.733-.407-1-.686-.954-2.152-.803-3.362l.651-5.118a4.1 4.1 0 0 1 1.128-2.803c1.152-.907 2.803-.337 4.269-.361a5.38 5.38 0 0 0 4.897-3.78 6.08 6.08 0 0 0-1.698-6.049c-.663-.628-1.559-1.419-1.21-2.268.287-.473.768-.797 1.314-.884 2.617-.756 5.397-.954 7.968-1.861 2.582-.896 5.083-2.734 5.7-5.397.186-.814.268-1.803 1-2.21a3.24 3.24 0 0 1 1.163-.233 5.66 5.66 0 0 0 4.851-5.897c1.233-.861 2.966-.221 4.164.698 1.186.919 2.245 2.129 3.699 2.524 2.71.744 5.327-1.663 8.142-1.675 1.186 0 2.408.419 3.513.012 1.128-.407 1.803-1.524 2.664-2.35.872-.837 2.385-1.338 3.187-.442l-.686-5.037a9.9 9.9 0 0 0 8.061-1.466l-8.782-2.966a1.9 1.9 0 0 1-.826-.442c-.64-.686 0-1.756.512-2.536 1.245-1.873 1.454-4.955-.593-5.886-1.396-.64-2.989.128-4.327.872l-6.421 3.571c-.198 1.221 1.291 1.919 2.21 2.734 1.146 1.017 1.549 2.634 1.013 4.069a3.71 3.71 0 0 1-3.432 2.41c.854 1.115 1.157 2.556.826 3.92l-4.315.314c-.484.096-.986-.004-1.396-.279-.465-.407-.395-1.128-.512-1.733-.392-1.479-1.645-2.571-3.164-2.757a10.92 10.92 0 0 0-4.409.407c-.62.218-1.299.202-1.908-.047-.345-.228-.607-.563-.744-.954-.515-1.622-.144-3.396.977-4.676a26.79 26.79 0 0 1 3.676-3.385 21.43 21.43 0 0 0 6.386-9.887c2.373-1 4.827-2.35 7.212-3.35a28.81 28.81 0 0 1 5.99-2.012 28.31 28.31 0 0 1 5.874-.279l8.038.151c2.388-.1 4.774.243 7.037 1.012 2.198.907 4.141 2.873 4.292 5.246a1.61 1.61 0 0 1-.523 1.477 1.89 1.89 0 0 1-1.012.233c-2.222.07-3.164.628-5.386.71 1.407 1.501 2.989 3.082 5.037 3.35 3.606.465 6.2-3.269 7.863-6.514.124 1.718 1.595 3.024 3.315 2.943a6.69 6.69 0 0 0 2.501-.977 49.19 49.19 0 0 1 23.322-6.025 2.51 2.51 0 0 1 1.919-2.768c1.663-.326 3.152 1.105 3.955 2.594.791 1.489 1.291 3.21 2.571 4.327 1.268 1.117 3.722 1.059 4.222-.547.489-1.547-1.128-2.873-2.466-3.792-1.349-.907-2.757-2.594-1.849-3.943 6.84-1.524 13.737-3.036 20.751-3.338a8.83 8.83 0 0 0 3.49-.605c1.13-.479 1.798-1.657 1.628-2.873a7.93 7.93 0 0 1-8.259-3.117c7.2-.593 14.738-1.117 21.659.5l6.06 5.141c-1.152 1.198-2.687 2.326-1.849 3.524a2.58 2.58 0 0 0 2.129.733l4.385.058a170.53 170.53 0 0 1 52.065 109.062c-2.443-.093-4.688 3.001-4.374 5.7.372 3.129 2.629 5.642 4.246 8.34a12.71 12.71 0 0 1 .721 1.361z"/></g><g fill="none" stroke="#3f3d56" stroke-width="2"><path stroke-miterlimit="10" d="M0 636.962h888"/><circle cx="366.352" cy="65.27" r="14.756"/><circle cx="802.352" cy="346.27" r="14.756"/><circle cx="701.619" cy="199.27" r="14.756"/></g><circle cx="604.808" cy="323.921" r="16.559" fill="#3f3d56"/><circle cx="657.999" cy="270.697" r="21.828" fill="#fff"/><path d="M680.074 248.069c-12.2-11.901-31.738-11.659-43.639.54s-28.893 73.811-28.893 73.811 61.171-18.512 73.073-30.712 11.659-31.738-.54-43.639zm-32.061 32.865a14.3 14.3 0 0 1 9.809-24.537 14.3 14.3 0 0 1 10.414 24.286c-5.515 5.654-14.569 5.766-20.223.25z" fill="#57b894"/><defs ><path id="B" d="M152.143 94.77s2.431 25.932-3.241 33.225 3.647 21.475 3.647 21.475l17.018 20.259 25.122-11.345 3.647-21.07-2.431-14.587s-8.509-8.509-4.862-23.906-38.898-4.052-38.898-4.052z"/></defs></svg>