<svg xmlns="http://www.w3.org/2000/svg" xmlns:xlink="http://www.w3.org/1999/xlink" width="1046" height="638.584" xmlns:v="https://vecta.io/nano"><style><![CDATA[.B{fill:#4a90e2}.C{fill:#2f2e41}.D{fill:#3f3d56}]]></style><path d="M161.231 554.645c8.565 31.662 37.903 51.271 37.903 51.271s15.451-31.725 6.886-63.387-37.903-51.271-37.903-51.271-15.451 31.725-6.886 63.387z" class="D"/><path d="M173.817 547.841c23.503 22.879 26.374 58.049 26.374 58.049s-35.235-1.924-58.738-24.803-26.374-58.049-26.374-58.049 35.235 1.924 58.738 24.803z" class="B"/><path d="M113.474 636.029h827.604v2.554H113.474z" class="C"/><path d="M210.733 637.306h-33.206V604.1h33.206zm-30.652-2.554h28.098v-28.098h-28.098zM0 25.322h281.42v281.42H0z" class="D"/><g class="B"><path d="M281.42 95.338v6.459a29.21 29.21 0 0 1-10.036-11.375c-3.747-7.663-3.628-16.495-3.509-25.04.136-10.155.271-19.733-6.171-25.972-7.086-6.849-18.428-5.883-29.396-4.95l-3.848.322c-11.002.831-23.26-1.95-29.21-9.46h7.425c5.442 3.662 13.766 4.95 21.412 4.374l3.781-.305c11.545-.983 24.633-2.102 33.363 6.357 8.036 7.764 7.883 18.92 7.731 29.702-.119 7.951-.22 16.156 3.001 22.734a23.25 23.25 0 0 0 5.459 7.154zm0 44.671v7.561c-1.235-1.614-2.62-3.106-4.137-4.459-8.748-7.714-21.31-9.409-33.448-11.07l-4.662-.644c-19.683-2.831-31.889-9.595-37.297-20.632-3.747-7.663-3.628-16.495-3.509-25.04.136-10.155.271-19.733-6.171-25.972-7.086-6.849-18.428-5.883-29.396-4.95l-3.848.322c-14.139 1.068-30.363-3.831-32.584-17.072-.763-4.543.373-8.714 2.051-12.732h5.561c-1.865 4.035-3.255 7.934-2.594 11.884 1.678 10.104 15.275 13.732 27.193 12.833l3.781-.305c11.545-.983 24.633-2.102 33.363 6.357 8.036 7.764 7.883 18.92 7.731 29.702-.119 7.951-.22 16.156 3.001 22.734 4.611 9.426 15.546 15.258 33.448 17.835l4.611.644c12.884 1.746 26.226 3.56 36.144 12.291q.381.331.763.712z"/><path d="M281.42 267.461v10.443c-6.12-6.51-11.24-15.444-15.156-26.616l-2.424-7.222c-4.391-13.274-8.934-26.989-19.75-35.754-11.562-9.358-28.125-11.426-44.146-13.427l-6.137-.78c-25.972-3.442-42.06-11.63-49.198-25.023-4.95-9.307-4.798-20.021-4.645-30.38.186-12.308.373-23.938-8.137-31.499-9.341-8.307-24.311-7.137-38.771-6.001l-5.069.39c-18.665 1.288-40.077-4.645-42.993-20.7-1.441-7.866 2.238-14.834 5.781-21.581 2.034-3.865 3.967-7.544 4.95-11.325 2.068-7.781-.492-16.546-6.171-22.666h8.307a29.87 29.87 0 0 1 4.391 24.124c-1.17 4.425-3.34 8.561-5.442 12.562-3.238 6.137-6.273 11.935-5.205 17.868 2.238 12.24 20.157 16.648 35.873 15.563l5.001-.373c15.224-1.204 32.482-2.543 44.01 7.714 10.596 9.409 10.392 22.937 10.189 36.008-.136 9.646-.288 19.598 3.95 27.583 6.086 11.409 20.53 18.496 44.146 21.632l6.069.78c17.021 2.119 34.601 4.306 47.672 14.902 12.257 9.935 17.089 24.497 21.734 38.585l2.407 7.137a80.35 80.35 0 0 0 8.765 18.055zM0 138.958c7.731 9.358 24.124 12.816 38.822 11.799l5.069-.39c14.461-1.136 29.43-2.306 38.772 6.001 8.51 7.561 8.324 19.191 8.137 31.499-.153 10.358-.305 21.073 4.645 30.38 7.137 13.393 23.226 21.581 49.198 25.023l6.137.78c16.021 2 32.584 4.069 44.146 13.427 10.816 8.765 15.359 22.48 19.75 35.754l2.424 7.222c.763 2.187 1.577 4.272 2.424 6.29h7.256c-1.271-2.763-2.356-5.527-3.289-8.171l-2.407-7.137c-4.645-14.088-9.477-28.651-21.734-38.585-13.071-10.596-30.651-12.783-47.672-14.902l-6.069-.78c-23.616-3.136-38.059-10.223-44.146-21.632-4.238-7.985-4.086-17.936-3.95-27.583.203-13.071.407-26.599-10.189-36.008-11.528-10.257-28.786-8.917-44.01-7.714l-5.001.373c-15.715 1.085-33.635-3.323-35.873-15.563-1.068-5.934 1.967-11.731 5.205-17.868 2.102-4.001 4.272-8.137 5.442-12.562C16.275 86.505 10.901 73.096 0 65.772v8.307c5.951 6.137 8.663 15.105 6.561 23.073-.983 3.781-2.916 7.459-4.95 11.325L0 111.579zm124.486 167.784h-7.035l-1.102-3.34c-4.391-13.274-8.934-26.989-19.75-35.754-11.562-9.358-28.125-11.426-44.146-13.427l-6.137-.78c-22.92-3.035-38.161-9.782-46.316-20.53v-16.868c.524 3.368 1.583 6.63 3.136 9.663 6.086 11.409 20.53 18.496 44.146 21.632l6.069.78c17.021 2.119 34.601 4.306 47.672 14.902 12.257 9.935 17.089 24.497 21.734 38.585l1.729 5.137z"/></g><path d="M381.442 25.322h281.42v281.42h-281.42z" class="D"/><g class="B"><path d="M517.066 45.665a89.86 89.86 0 0 1-135.624 77.323V25.322h133.301a89.31 89.31 0 0 1 2.323 20.344z"/><circle cx="589.964" cy="101.61" r="54.25"/><circle cx="467.903" cy="216.891" r="38.992"/><path d="M662.862 260.629v46.112H607.07c-4.847-15.175.025-31.773 12.304-41.922s29.497-11.808 43.488-4.191z"/><circle cx="566.23" cy="215.195" r="10.172"/></g><path d="M764.58 25.322H1046v281.42H764.58z" class="D"/><path d="M901.9 25.322v115.28H764.58v6.781h144.1V25.322zm132.453 281.42L1046 290.179v-11.782l-19.937 28.345zm-47.299-121.35l-62.404 88.749 46.367 32.601h11.782l-48.706-34.245 54.606-77.662L1046 235.132v-8.29zm-103.803-11.24l-35.957 35.957 35.957 35.957 35.957-35.957zm-26.379 35.957l26.379-26.379 26.379 26.379-26.379 26.379z" class="B"/><g fill="#f2f2f2"><circle cx="137.934" cy="25.543" r="25.543"/><circle cx="532.579" cy="25.543" r="25.543"/><circle cx="909.343" cy="25.543" r="25.543"/></g><g fill="#ffb8b8"><circle cx="506.397" cy="150.067" r="24.266"/><path d="M493.625 161.562s6.386 33.206 3.832 39.592 35.761-2.554 35.761-2.554-7.663-33.206-6.386-40.869-33.206 3.832-33.206 3.832zm-42.146 114.945l2.554 34.483 12.677 54.156 3.926 14.811 6.386-22.989-6.386-52.364-2.169-23.575-16.988-4.522zm134.102-5.109v35.761s-3.832 45.978-11.495 57.473-10.217-45.978-10.217-45.978l6.005-42.147z"/></g><g class="C"><path d="M471.913 382.512s-6.386 7.663-1.277 85.57-2.554 134.103 14.049 134.103c0 0-5.109 16.603 8.94 17.88s20.435 2.554 21.712-1.277 3.832-21.712 0-21.712c0 0 0 5.109 2.554-15.326s2.554-117.499 8.94-130.271l20.435 47.255s0 21.712 3.832 31.929 10.217 68.967 10.217 68.967l-1.277 8.94s30.652 5.109 31.929 0 1.277-12.772 0-15.326-1.277-2.554 1.277-7.663 2.554-8.94 1.277-12.772-1.277-86.847-1.277-86.847-2.554-100.896-17.88-106.005-103.451 2.554-103.451 2.554z"/><path d="M488.516 609.847l-10.217 17.88s-15.965-5.747-12.772 8.94c27.459 1.916 46.617-.639 46.617-.639s6.386 2.554 7.663-1.277-3.193-17.242-7.024-17.242-24.266-7.663-24.266-7.663zm74.076-5.108s-10.217 22.989-6.386 24.266 38.315 6.386 40.869 7.663 15.326 2.554 16.603-5.109-6.386-10.217-6.386-10.217-14.049-2.554-17.88-15.326-26.821-1.277-26.821-1.277z"/></g><g fill="#8985a8"><path d="M535.772 194.768s-34.484-6.386-42.147 0-39.592 19.158-39.592 25.543 16.603 68.967 16.603 68.967-8.94 94.51 0 97.065 24.266-5.109 42.147 3.832 68.967-7.663 68.967-7.663-19.158-81.739-14.049-97.065 8.94-67.69 8.94-67.69-21.712-22.989-40.869-22.989z"/><path d="M462.973 216.48l-8.94 2.554s-19.158 60.027-11.495 62.581 29.375 7.663 31.929 7.663-11.495-72.799-11.495-72.799zm93.233-6.386l20.435 7.663s26.821 49.81 20.435 56.195-34.484 12.772-34.484 12.772z"/></g><path d="M505.66 120.095c-2.018-.366-4.092-.274-6.07.268a15.83 15.83 0 0 0-4.314 2.83 50.49 50.49 0 0 1-7.376 4.887c-2.07 1.123-4.294 2.163-5.739 4.023a12.21 12.21 0 0 0-1.62 3.066 36.74 36.74 0 0 0-1.932 19.996 9.19 9.19 0 0 0 .851 2.746c1.327 2.446 4.259 3.409 6.729 4.691 4.689 2.434 8.243 6.533 12.089 10.155 1.428 1.426 3.034 2.663 4.777 3.681 5.487 2.991 12.193 2.016 18.352.958.882-.002 1.726-.355 2.346-.982s.964-1.475.955-2.357l4.862-21.866c.881-3.24 1.301-6.588 1.246-9.944-.339-5.308-3.213-12.661-7.108-16.431-4.539-4.393-12.114-5.092-18.047-5.72z" class="C"/><circle cx="341.31" cy="607.969" r="10.079" class="B"/><use xlink:href="#B" class="C"/><circle cx="831.742" cy="609.246" r="10.079" class="B"/><use xlink:href="#B" x="490.432" y="1.277" class="C"/><circle cx="831.742" cy="553.051" r="10.079" class="B"/><use xlink:href="#B" x="490.432" y="-54.918" class="C"/><defs ><path id="B" d="M341.31 637.085c-11.776 0-22.393-7.094-26.9-17.974s-2.016-23.403 6.312-31.73 20.85-10.818 31.73-6.312 17.974 15.123 17.974 26.9c-.018 16.073-13.043 29.098-29.116 29.116zm0-55.992c-14.843 0-26.876 12.033-26.876 26.876s12.033 26.876 26.876 26.876 26.876-12.033 26.876-26.876c-.017-14.836-12.04-26.859-26.876-26.876z"/></defs></svg>