<svg xmlns="http://www.w3.org/2000/svg" width="926.012" height="493"  xmlns:v="https://vecta.io/nano"><path d="M369.012 0v250h557V0zm2 248V2h137v246zm139-246h158v246h-158zm414 246h-254V2h254z" fill="#3f3d56"/><path d="M432.387 122.243h-37.894c4.262-17.487 8.357-33.814 0-45.472h37.894q10.698 22.76 0 45.472z" fill="#4a90e2"/><path d="M622.892 207.692h-37.894c-2.37-21.079 2.859-36.791 0-45.472h37.894c-1.456 15.122-1.456 30.35 0 45.472z" fill="#e6e6e6"/><path d="M576.594 141.453H538.7c1.421-17.484 6.002-33.811 0-45.472h37.894q10.702 22.736 0 45.472z" fill="#4a90e2"/><path d="M609.329 111.718h37.894c2.37-17.488-2.859-33.814 0-45.472h-37.894q-10.702 22.736 0 45.472z" fill="#ff6584"/><path d="M433.545 193.714h37.893c2.37-17.488-2.859-33.814 0-45.472h-37.893q-10.702 22.736 0 45.472z" fill="#e6e6e6"/><path d="M406.115 21.457h55.896v2h-55.896zm154 0h55.896v2h-55.896zm209 0h55.896v2h-55.896z" fill="#3f3d56"/><g fill="#ccc"><path d="M58.913 345.492v2.736a17.12 17.12 0 0 0 17.102 17.102h145.027c9.444-.003 17.099-7.658 17.102-17.102v-2.736a16.98 16.98 0 0 0-3.968-10.945c-.856-1.018-1.824-1.936-2.887-2.736h-75.223c-1.889-.001-3.42-1.532-3.42-3.42H76.016a17.13 17.13 0 0 0-17.102 17.102z"/><path d="M156.745 490.524h-17.786V364.651h17.786z"/><path d="M88.336 489.899c0 1.922 26.952.743 60.2.743s60.2 1.178 60.2-.743-26.952-17.162-60.2-17.162-60.2 15.24-60.2 17.162z"/></g><path fill="#a0616a" d="M239.093 474.5l16.991-.001 8.083-65.537-25.077.001.003 65.537z"/><path d="M234.759 468.952l33.463-.001a21.33 21.33 0 0 1 21.324 21.324v.693l-54.786.002z" fill="#2f2e41"/><path fill="#a0616a" d="M173.322 439.693l-13.766 9.96-44.968-48.356 20.317-14.7 38.417 53.096z"/><path d="M186.488 450.496l-44.386 32.115-.406-.561a21.33 21.33 0 0 1 4.775-29.776l.001-.001 27.109-19.615z" fill="#2f2e41"/><path d="M191.918 184.938s-17.827-13.352-37.102 0l-13.341 111.271h40.057l5.934-35.607 13.352-53.41z" fill="#ccc"/><path d="M232.049 356.787l-71.892-23.475-34.273 27.197 36.409 55.662-19.043 24.974-.545-.62c-2.363-2.691-57.861-66.113-57.7-84.102.159-17.838 6.069-35.769 6.129-35.949l18.028-25.589 25.587-7.525 84.849 11.909 34.226 20.832a26.89 26.89 0 0 1 12.205 19.799c1.47 13.228 4.425 119.161 4.455 120.23l.019.694h-36.967z" fill="#2f2e41"/><path d="M186.451 330.208c-12.495-5.553-28.453-27.236-31.083-30.893-5.141 2.799-42.636 22.838-53.206 17.686-1.535.847-8.475 4.988-9.725 11.237l-.313 1.568-.906-1.317c-.167-.243-16.452-24.457 4.615-39.507 19.209-13.72 24.377-27.581 24.918-29.167l-10.423-55.089.273-.254c.855-.794 21.145-19.462 39.658-21.683l11.42-2.013.499 43.477v55.66c9.228-1.16 23.826-98.413 23.826-98.413l7.629 2.795c1.971.378 24.123 4.803 30.002 13.621l.191.286-20.148 54.474-5.893 8.872v11.356l34.425 29.935-.489.512c-1.173 1.229-26.558 27.631-41.345 27.627-1.348.022-2.686-.24-3.926-.771z" fill="#3f3d56"/><g fill="#a0616a"><circle cx="310.323" cy="339.975" r="33.19" transform="matrix(.47966 -.877454 .877454 .47966 -273.83342 245.69729)"/><path d="M164.972 340.093c.481-3.816 2.628-7.222 5.862-9.303s7.224-2.622 10.896-1.478l19.023-22.804 16.678 8.18-27.317 31.827a13.07 13.07 0 0 1-25.143-6.422z"/></g><path d="M178.418 320.754l29.844-40.289-7.392-39.918 11.993-44.973.302-.129c.242-.104 5.982-2.523 10.351-.71 1.807.746 3.219 2.213 3.895 4.047 2.969 7.423 10.127 83.021 10.43 86.367-.061.611-1.53 15.03-4.519 21.006-2.974 5.949-30.106 35.966-31.259 37.242l-.477.527z" fill="#3f3d56"/><path d="M201.84 127.933c-11.048 13.895-29.983 11.349-45.134 6.264a48.01 48.01 0 0 1-8.542 31.344c1.957-7.881-6.286-9.45-11.095-12.381-1.852-2.344-.313-5.842-1.073-8.731-8.636-10.125-14.358-17.764-3.273-29.646 6.489-8.686 14.278-19.532 26.642-17.25 9.783-11.413 25.815-8.445 36.754-.461a78.14 78.14 0 0 1 13.329 12.525c-1.259 6.162-3.603 12.05-6.923 17.391" fill="#2f2e41"/><path d="M382 493H1a1 1 0 1 1 0-2h381a1 1 0 1 1 0 2z" fill="#3f3d56"/><path d="M193.015 358.378h-37.894c1.421-17.484 6.002-33.811 0-45.472h37.894q10.702 22.736 0 45.472z" fill="#4a90e2"/><path d="M176.458 349.794c-.481-3.816-2.628-7.222-5.862-9.303s-7.224-2.622-10.896-1.478l-19.023-22.804-16.678 8.18 27.317 31.827a13.07 13.07 0 0 0 25.143-6.422z" fill="#a0616a"/><path d="M139.587 345.709c-1.701-1.276-41.72-31.355-46.191-40.296-4.478-8.957-3.368-35.477-3.31-36.683.07-.417 7.037-41.863 12.93-56.595 6.115-15.286 21.495-9.341 21.649-9.278l.465.186-6.697 78.131 36.529 48.457-14.882 16.448z" fill="#3f3d56"/></svg>